:FULLY-SPECIFIED
:FORCE-ALL-JOINTS-BE-3DOF
:DEGREES
1020
root 0.250165 13.5677 -35.3981 372.235 -28.0911 342.185
lfemur -69.9519 36.1692 -4.03418
ltibia 81.9968 0 0
lfoot -12.4706 -9.8615 0
ltoes -3.85353 0 0
rfemur 10.375 -8.72862 8.9084
rtibia 36.2336 0 0
rfoot -22.8566 -25.971 0
rtoes -31.2098 0 0
lowerback 10.1284 -0.960082 5.5645
upperback -1.87249 -0.0408772 8.34357
thorax -7.73472 -0.0993539 5.82179
lowerneck -4.72824 8.36145 3.47035
upperneck 8.06175 11.0213 -1.10362
head 3.73337 5.51609 -0.41914
lclavicle -6.85374e-14 -3.81508e-15 0
lhumerus 84.6074 -14.0622 25.9215
lradius 96.1909 0 0
lwrist 10.1655 0 0
lhand -35.7544 31.4122 0
lfingers 7.12502 0 0
lthumb -8.8728 61.2101 0
rclavicle -6.85374e-14 -3.81508e-15 0
rhumerus -77.6175 23.0231 -95.0108
rradius 112.109 0 0
rwrist -62.8332 0 0
rhand -10.2007 -25.0633 0
rfingers 7.12502 0 0
rthumb 15.7904 -54.4393 0
1021
root 0.248281 13.5632 -35.39 372.243 -28.0995 342.21
lfemur -69.9799 36.1745 -4.05863
ltibia 82.0789 0 0
lfoot -12.5683 -9.70059 0
ltoes -4.13973 0 0
rfemur 10.3913 -8.72288 8.8661
rtibia 36.2191 0 0
rfoot -22.8325 -26.0028 0
rtoes -31.2275 0 0
lowerback 10.1245 -0.940093 5.52893
upperback -1.87585 -0.020877 8.31024
thorax -7.73647 -0.0884713 5.80157
lowerneck -4.74791 8.35608 3.46216
upperneck 8.04364 11.0126 -1.08784
head 3.72901 5.51207 -0.412795
lclavicle -6.72691e-14 -8.85437e-16 0
lhumerus 84.2066 -12.8602 26.4502
lradius 95.7526 0 0
lwrist 9.876 0 0
lhand -35.7588 31.2326 0
lfingers 7.12502 0 0
lthumb -8.87703 61.0287 0
rclavicle -6.72691e-14 -8.85437e-16 0
rhumerus -77.6177 23.0289 -95.0305
rradius 112.072 0 0
rwrist -62.9017 0 0
rhand -10.2129 -25.0495 0
rfingers 7.12502 0 0
rthumb 15.7787 -54.4265 0
1022
root 0.246568 13.5582 -35.3812 372.253 -28.1094 342.236
lfemur -70.0114 36.1776 -4.08473
ltibia 82.1695 0 0
lfoot -12.6735 -9.5172 0
ltoes -4.45872 0 0
rfemur 10.4071 -8.71751 8.81887
rtibia 36.2045 0 0
rfoot -22.8044 -26.037 0
rtoes -31.2516 0 0
lowerback 10.1234 -0.919473 5.49068
upperback -1.87867 -0.000224205 8.27562
thorax -7.73932 -0.0771762 5.78138
lowerneck -4.7689 8.35036 3.45318
upperneck 8.02403 11.0034 -1.07146
head 3.72427 5.5078 -0.406143
lclavicle -6.57859e-14 2.15393e-15 0
lhumerus 83.8658 -11.6407 26.9504
lradius 95.3418 0 0
lwrist 9.60054 0 0
lhand -35.7693 31.0592 0
lfingers 7.12502 0 0
lthumb -8.88722 60.8536 0
rclavicle -6.57859e-14 2.15393e-15 0
rhumerus -77.617 23.0343 -95.0503
rradius 112.036 0 0
rwrist -62.9726 0 0
rhand -10.2224 -25.0399 0
rfingers 7.12502 0 0
rthumb 15.7695 -54.4176 0
1023
root 0.245047 13.5528 -35.3718 372.264 -28.121 342.264
lfemur -70.0466 36.1786 -4.11263
ltibia 82.2694 0 0
lfoot -12.7866 -9.31026 0
ltoes -4.812 0 0
rfemur 10.4223 -8.7125 8.76636
rtibia 36.1897 0 0
rfoot -22.772 -26.0738 0
rtoes -31.2825 0 0
lowerback 10.1253 -0.89823 5.44956
upperback -1.88094 0.0210583 8.23971
thorax -7.74333 -0.065472 5.76135
lowerneck -4.79128 8.34428 3.44337
upperneck 8.00295 10.9938 -1.05447
head 3.71917 5.50327 -0.399167
lclavicle -6.40811e-14 5.30785e-15 0
lhumerus 83.5916 -10.4031 27.418
lradius 94.9627 0 0
lwrist 9.34024 0 0
lhand -35.7869 30.8926 0
lfingers 7.12502 0 0
lthumb -8.90416 60.6854 0
rclavicle -6.40811e-14 5.30785e-15 0
rhumerus -77.6155 23.0394 -95.0701
rradius 111.999 0 0
rwrist -63.0458 0 0
rhand -10.2292 -25.0347 0
rfingers 7.12502 0 0
rthumb 15.763 -54.4128 0
1024
root 0.243738 13.5468 -35.3616 372.276 -28.1344 342.294
lfemur -70.0858 36.1774 -4.14245
ltibia 82.3793 0 0
lfoot -12.9082 -9.07871 0
ltoes -5.20107 0 0
rfemur 10.437 -8.70787 8.70826
rtibia 36.1745 0 0
rfoot -22.7353 -26.1132 0
rtoes -31.3204 0 0
lowerback 10.1304 -0.876375 5.40541
upperback -1.88265 0.0429479 8.20254
thorax -7.74857 -0.0533624 5.74161
lowerneck -4.81515 8.33787 3.4327
upperneck 7.98042 10.9836 -1.03683
head 3.71372 5.49848 -0.391853
lclavicle -6.21484e-14 8.58115e-15 0
lhumerus 83.3908 -9.14653 27.8485
lradius 94.6196 0 0
lwrist 9.09627 0 0
lhand -35.8123 30.7335 0
lfingers 7.12502 0 0
lthumb -8.92868 60.5247 0
rclavicle -6.21484e-14 8.58115e-15 0
rhumerus -77.6132 23.0442 -95.0898
rradius 111.962 0 0
rwrist -63.1212 0 0
rhand -10.2329 -25.034 0
rfingers 7.12502 0 0
rthumb 15.7594 -54.4124 0
1025
root 0.242661 13.5404 -35.3507 372.29 -28.1496 342.326
lfemur -70.1292 36.1739 -4.17434
ltibia 82.4996 0 0
lfoot -13.0387 -8.82147 0
ltoes -5.62741 0 0
rfemur 10.4512 -8.70362 8.64426
rtibia 36.159 0 0
rfoot -22.694 -26.1552 0
rtoes -31.3658 0 0
lowerback 10.1386 -0.853917 5.35804
upperback -1.88378 0.0654219 8.16412
thorax -7.75511 -0.0408508 5.72227
lowerneck -4.84057 8.3311 3.42116
upperneck 7.95645 10.9729 -1.01852
head 3.70795 5.49343 -0.384183
lclavicle -5.99812e-14 1.19787e-14 0
lhumerus 83.2702 -7.87022 28.2378
lradius 94.3167 0 0
lwrist 8.86981 0 0
lhand -35.8464 30.5824 0
lfingers 7.12502 0 0
lthumb -8.96156 60.372 0
rclavicle -5.99812e-14 1.19787e-14 0
rhumerus -77.6099 23.0487 -95.1094
rradius 111.926 0 0
rwrist -63.1985 0 0
rhand -10.2335 -25.0383 0
rfingers 7.12502 0 0
rthumb 15.7588 -54.4167 0
1026
root 0.241835 13.5333 -35.339 372.306 -28.1668 342.36
lfemur -70.1772 36.1683 -4.20844
ltibia 82.6312 0 0
lfoot -13.1786 -8.53747 0
ltoes -6.09254 0 0
rfemur 10.4651 -8.69976 8.57401
rtibia 36.1431 0 0
rfoot -22.6479 -26.2 0
rtoes -31.419 0 0
lowerback 10.1503 -0.830868 5.30728
upperback -1.88432 0.0884574 8.12446
thorax -7.76301 -0.0279407 5.70346
lowerneck -4.86763 8.32399 3.40872
upperneck 7.93106 10.9617 -0.999513
head 3.70187 5.48813 -0.376144
lclavicle -5.7573e-14 1.55052e-14 0
lhumerus 83.2364 -6.57342 28.5815
lradius 94.0584 0 0
lwrist 8.66203 0 0
lhand -35.89 30.44 0
lfingers 7.12502 0 0
lthumb -9.00363 60.2279 0
rclavicle -5.7573e-14 1.55052e-14 0
rhumerus -77.6058 23.0529 -95.1289
rradius 111.89 0 0
rwrist -63.2778 0 0
rhand -10.2306 -25.0477 0
rfingers 7.12502 0 0
rthumb 15.7616 -54.4259 0
1027
root 0.240541 13.5255 -35.3299 372.326 -28.195 342.384
lfemur -70.24 36.172 -4.22904
ltibia 82.7699 0 0
lfoot -13.3159 -8.25455 0
ltoes -6.57891 0 0
rfemur 10.5079 -8.69489 8.4957
rtibia 36.0894 0 0
rfoot -22.6057 -26.2579 0
rtoes -31.4877 0 0
lowerback 10.1628 -0.808193 5.26375
upperback -1.88437 0.112569 8.08735
thorax -7.77104 -0.0148321 5.68307
lowerneck -4.89414 8.31976 3.39775
upperneck 7.90704 10.9543 -0.981681
head 3.69625 5.4847 -0.368563
lclavicle -5.49208e-14 1.90411e-14 0
lhumerus 83.2523 -5.31164 28.8898
lradius 93.8283 0 0
lwrist 8.46651 0 0
lhand -35.935 30.306 0
lfingers 7.12502 0 0
lthumb -9.04705 60.0924 0
rclavicle -5.49208e-14 1.90411e-14 0
rhumerus -77.6164 23.0563 -95.1461
rradius 111.869 0 0
rwrist -63.3675 0 0
rhand -10.2198 -25.0475 0
rfingers 7.12502 0 0
rthumb 15.7721 -54.425 0
